<mxfile host="Electron" modified="2023-10-17T09:38:39.681Z" agent="Mozilla/5.0 (Windows NT 10.0; Win64; x64) AppleWebKit/537.36 (KHTML, like Gecko) draw.io/21.4.0 Chrome/112.0.5615.204 Electron/24.5.1 Safari/537.36" etag="wBwZw5shO_1ffCxI97Y_" version="21.4.0" type="device">
  <diagram name="Page-1" id="c_x3nn40oHy5HrwsD6OF">
    <mxGraphModel dx="1036" dy="606" grid="1" gridSize="10" guides="1" tooltips="1" connect="1" arrows="1" fold="1" page="1" pageScale="1" pageWidth="850" pageHeight="1100" math="0" shadow="0">
      <root>
        <mxCell id="0" />
        <mxCell id="1" parent="0" />
        <mxCell id="ZvBxzl65H64Q5XOjN3YQ-1" value="" style="rounded=0;whiteSpace=wrap;html=1;" parent="1" vertex="1">
          <mxGeometry x="40" y="40" width="760" height="440" as="geometry" />
        </mxCell>
        <mxCell id="iVOFplejZTz1ZxkQ45nb-1" value="" style="rounded=0;whiteSpace=wrap;html=1;" vertex="1" parent="1">
          <mxGeometry x="70" y="60" width="140" height="400" as="geometry" />
        </mxCell>
        <mxCell id="iVOFplejZTz1ZxkQ45nb-2" value="&lt;font style=&quot;font-size: 20px;&quot;&gt;&lt;b&gt;TRANG QUẢN TRỊ ADMIN&lt;/b&gt;&lt;/font&gt;" style="text;html=1;strokeColor=none;fillColor=none;align=center;verticalAlign=middle;whiteSpace=wrap;rounded=0;" vertex="1" parent="1">
          <mxGeometry x="340" y="70" width="280" height="50" as="geometry" />
        </mxCell>
        <mxCell id="iVOFplejZTz1ZxkQ45nb-4" value="Tổng quan" style="text;html=1;strokeColor=none;fillColor=none;align=center;verticalAlign=middle;whiteSpace=wrap;rounded=0;fontSize=16;fontStyle=1" vertex="1" parent="1">
          <mxGeometry x="90" y="75" width="100" height="40" as="geometry" />
        </mxCell>
        <mxCell id="iVOFplejZTz1ZxkQ45nb-5" value="Hóa đơn" style="text;html=1;strokeColor=none;fillColor=none;align=center;verticalAlign=middle;whiteSpace=wrap;rounded=0;fontSize=16;fontStyle=1" vertex="1" parent="1">
          <mxGeometry x="90" y="120" width="100" height="40" as="geometry" />
        </mxCell>
        <mxCell id="iVOFplejZTz1ZxkQ45nb-6" value="Tài khoản" style="text;html=1;strokeColor=none;fillColor=none;align=center;verticalAlign=middle;whiteSpace=wrap;rounded=0;fontSize=16;fontStyle=1" vertex="1" parent="1">
          <mxGeometry x="90" y="160" width="100" height="40" as="geometry" />
        </mxCell>
        <mxCell id="iVOFplejZTz1ZxkQ45nb-7" value="Sản phẩm" style="text;html=1;strokeColor=none;fillColor=none;align=center;verticalAlign=middle;whiteSpace=wrap;rounded=0;fontSize=16;fontStyle=1" vertex="1" parent="1">
          <mxGeometry x="90" y="200" width="100" height="40" as="geometry" />
        </mxCell>
        <mxCell id="iVOFplejZTz1ZxkQ45nb-8" value="Top sản phẩm" style="text;html=1;strokeColor=none;fillColor=none;align=center;verticalAlign=middle;whiteSpace=wrap;rounded=0;fontSize=16;fontStyle=1" vertex="1" parent="1">
          <mxGeometry x="90" y="240" width="100" height="40" as="geometry" />
        </mxCell>
        <mxCell id="iVOFplejZTz1ZxkQ45nb-9" value="Top khách hàng" style="text;html=1;strokeColor=none;fillColor=none;align=center;verticalAlign=middle;whiteSpace=wrap;rounded=0;fontSize=16;fontStyle=1" vertex="1" parent="1">
          <mxGeometry x="90" y="290" width="100" height="40" as="geometry" />
        </mxCell>
        <mxCell id="iVOFplejZTz1ZxkQ45nb-10" value="Top nhân viên" style="text;html=1;strokeColor=none;fillColor=none;align=center;verticalAlign=middle;whiteSpace=wrap;rounded=0;fontSize=16;fontStyle=1" vertex="1" parent="1">
          <mxGeometry x="90" y="340" width="100" height="40" as="geometry" />
        </mxCell>
        <mxCell id="iVOFplejZTz1ZxkQ45nb-11" value="Nhà cung cấp" style="text;html=1;strokeColor=none;fillColor=none;align=center;verticalAlign=middle;whiteSpace=wrap;rounded=0;fontSize=16;fontStyle=1" vertex="1" parent="1">
          <mxGeometry x="90" y="390" width="100" height="40" as="geometry" />
        </mxCell>
        <mxCell id="iVOFplejZTz1ZxkQ45nb-12" value="TỔNG SẢN PHẨM" style="rounded=0;whiteSpace=wrap;html=1;fontSize=16;fontStyle=1" vertex="1" parent="1">
          <mxGeometry x="270" y="150" width="120" height="50" as="geometry" />
        </mxCell>
        <mxCell id="iVOFplejZTz1ZxkQ45nb-13" value="TỔNG BÌNH LUẬN" style="rounded=0;whiteSpace=wrap;html=1;fontSize=16;fontStyle=1" vertex="1" parent="1">
          <mxGeometry x="450" y="150" width="120" height="50" as="geometry" />
        </mxCell>
        <mxCell id="iVOFplejZTz1ZxkQ45nb-14" value="TỔNG DOANH THU" style="rounded=0;whiteSpace=wrap;html=1;fontSize=16;fontStyle=1" vertex="1" parent="1">
          <mxGeometry x="620" y="150" width="120" height="50" as="geometry" />
        </mxCell>
        <mxCell id="iVOFplejZTz1ZxkQ45nb-15" value="..." style="text;html=1;strokeColor=none;fillColor=none;align=center;verticalAlign=middle;whiteSpace=wrap;rounded=0;fontSize=20;fontStyle=1" vertex="1" parent="1">
          <mxGeometry x="110" y="430" width="60" height="30" as="geometry" />
        </mxCell>
        <mxCell id="iVOFplejZTz1ZxkQ45nb-16" value="BIỂU ĐỒ TRÒN" style="ellipse;whiteSpace=wrap;html=1;aspect=fixed;fontStyle=1;fontSize=20;" vertex="1" parent="1">
          <mxGeometry x="305" y="260" width="170" height="170" as="geometry" />
        </mxCell>
        <mxCell id="iVOFplejZTz1ZxkQ45nb-17" value="BIỂU ĐỒ CỘT" style="rounded=0;whiteSpace=wrap;html=1;fontStyle=1;fontSize=20;" vertex="1" parent="1">
          <mxGeometry x="510" y="260" width="220" height="170" as="geometry" />
        </mxCell>
      </root>
    </mxGraphModel>
  </diagram>
</mxfile>
